<svg id="Icons" height="512" viewBox="0 0 74 74" width="512" xmlns="http://www.w3.org/2000/svg"><path d="m26.483 23.775h-19.775a1 1 0 0 1 -1-1v-19.775a1 1 0 0 1 1-1h19.775a1 1 0 0 1 1 1v19.775a1 1 0 0 1 -1 1zm-18.775-2h17.775v-17.775h-17.775z"/><path d="m53.686 62.114h-27.2a1 1 0 0 1 0-2h26.2v-9.531a1 1 0 0 1 2 0v10.531a1 1 0 0 1 -1 1z"/><path d="m53.69 24.415a1 1 0 0 1 -1-.995v-9.53h-4.42a1 1 0 0 1 0-2h5.42a1 1 0 0 1 1 1v10.52a1 1 0 0 1 -1 1.005z"/><path d="m31.37 13.89h-4.89a1 1 0 0 1 0-2h4.89a1 1 0 1 1 0 2z"/><path d="m41.27 13.89h-2.9a1 1 0 0 1 0-2h2.9a1 1 0 0 1 0 2z"/><path d="m16.6 72a10.888 10.888 0 1 1 10.883-10.888 10.9 10.9 0 0 1 -10.883 10.888zm0-19.776a8.888 8.888 0 1 0 8.887 8.888 8.9 8.9 0 0 0 -8.887-8.888z"/><path d="m53.7 51.6a1 1 0 0 1 -.707-.293l-13.595-13.6a1 1 0 0 1 0-1.414l13.6-13.6a1 1 0 0 1 1.414 0l13.588 13.6a1 1 0 0 1 0 1.414l-13.6 13.593a1 1 0 0 1 -.7.3zm-12.185-14.6 12.185 12.182 12.178-12.182-12.178-12.182z"/></svg>