<svg id="Capa_1" enable-background="new 0 0 609.656 609.656" height="512" viewBox="0 0 609.656 609.656" width="512" xmlns="http://www.w3.org/2000/svg"><g><g id="Page-1_53_"><g id="_x30_54---Write-Note" transform="translate(0 -1)"><path id="Shape_117_" d="m30.483 600.525h467.402c16.835 0 30.483-13.648 30.483-30.483v-30.828c4.501-.881 8.747-2.759 12.427-5.497 6.493-4.824 10.768-12.062 11.858-20.078l56.708-402.514c2.323-16.658-9.286-32.05-25.941-34.395l-16.318-2.276-36.996-36.986c-7.936-7.933-20.799-7.933-28.735 0l-21.553 21.552c-7.572-7.487-19.639-7.859-27.658-.854l-331.57-46.74c-8.011-1.124-16.14.983-22.597 5.856s-10.712 12.113-11.828 20.125l-9.236 65.233h-46.446c-16.835.001-30.483 13.648-30.483 30.483v436.919c0 16.836 13.648 30.483 30.483 30.483zm199.458-233.254 13.412 13.412-22.141 8.708zm34.039 5.304-25.91-25.921 15.597-39.577 49.931 49.921zm57.765-26.164-21.551-21.551 114.961-114.95c3.851-3.987 3.796-10.324-.124-14.244-3.919-3.919-10.257-3.974-14.244-.124l-114.961 114.95-21.551-21.551 168.905-168.915.091-.091 10.628-10.628 21.551 21.561-35.929 35.919c-2.568 2.567-3.572 6.308-2.634 9.816s3.677 6.248 7.184 7.189 7.249-.06 9.818-2.627l35.929-35.929 21.551 21.551zm215.554-201.186-14.378 14.368-71.838-71.848 14.367-14.368 7.184 7.184 57.48 57.48zm51.932-36.894-56.708 402.514c-.361 2.646-1.78 5.033-3.932 6.615-.061 0-.152.061-.224.112v-338.47c3.364-.89 6.439-2.641 8.921-5.08l14.378-14.378c7.933-7.936 7.933-20.799 0-28.735l21.551-21.551c3.377-3.403 5.428-7.9 5.782-12.681l1.636.234c5.516.807 9.352 5.908 8.596 11.431zm-73.494-56.495 43.113 43.103 1.148-1.148-22.699 22.71-43.113-43.113zm-409.484-11.624c.806-5.552 5.96-9.401 11.512-8.596l316.634 44.606c-3.461 4.859-4.523 11.029-2.886 16.766l-9.683 9.653h-324.377zm-85.931 92.911c0-5.612 4.549-10.161 10.161-10.161h371.026l-158.795 158.795c-.984.984-1.755 2.16-2.266 3.455l-36.213 91.773h-122.948c-5.612 0-10.161 4.549-10.161 10.161s4.549 10.161 10.161 10.161h121.291c.96 2.445 2.389 4.678 4.207 6.574 5.75 5.792 14.414 7.567 21.978 4.501l96.712-38.144c1.298-.515 2.477-1.29 3.465-2.276l179.106-179.106v381.186c0 5.612-4.549 10.161-10.161 10.161h-467.402c-5.612 0-10.161-4.549-10.161-10.161z"/><g clip-rule="evenodd" fill-rule="evenodd"><path id="Path_420_" d="m81.287 336.342h91.448c5.612 0 10.161-4.549 10.161-10.161s-4.549-10.161-10.161-10.161h-91.448c-5.612 0-10.161 4.549-10.161 10.161 0 5.611 4.55 10.161 10.161 10.161z"/><path id="Path_419_" d="m81.287 275.376h132.092c5.612 0 10.161-4.549 10.161-10.161s-4.549-10.161-10.161-10.161h-132.092c-5.612 0-10.161 4.549-10.161 10.161s4.55 10.161 10.161 10.161z"/><path id="Path_418_" d="m81.287 214.411h60.965c5.612 0 10.161-4.549 10.161-10.161s-4.549-10.161-10.161-10.161h-60.965c-5.612 0-10.161 4.549-10.161 10.161s4.55 10.161 10.161 10.161z"/><path id="Path_417_" d="m182.896 214.411h71.126c5.612 0 10.161-4.549 10.161-10.161s-4.549-10.161-10.161-10.161h-71.126c-5.612 0-10.161 4.549-10.161 10.161s4.55 10.161 10.161 10.161z"/></g></g></g></g></svg>