<svg id="Layer_1" enable-background="new 0 0 509.75 509.75" height="512" viewBox="0 0 509.75 509.75" width="512" xmlns="http://www.w3.org/2000/svg"><g><path d="m254.875 179.75c-24.813 0-45 20.186-45 45 2.472 59.699 87.538 59.681 90 0 0-24.814-20.186-45-45-45zm0 60c-8.271 0-15-6.729-15-15 .824-19.9 29.18-19.894 30 0 0 8.271-6.729 15-15 15z"/><path d="m389.568 240.783c-3.765-92.833-50.689-178.254-125.693-234.033l-9-6.75-9 6.75c-75.001 55.773-121.93 141.206-125.693 234.033-50.965 7.168-90.307 51.056-90.307 103.967v45h90 30v60h30v30h30v-30h30v60h30v-60h30v30h30v-30h30v-60h30 90v-45c0-52.911-39.341-96.799-90.307-103.967zm-134.693-203.014c28.773 23.325 52.207 51.146 69.588 81.981h-139.176c17.381-30.835 40.815-58.656 69.588-81.981zm-135 321.981h-60v-15c0-36.219 25.809-66.523 60-73.493zm210 60h-150v-30h150zm30-60h-210v-105c0-36.605 7.196-72.105 20.804-105h168.393c13.607 32.895 20.804 68.395 20.804 105v105zm90 0h-60v-88.493c34.19 6.97 60 37.275 60 73.493z"/></g></svg>